# xmcd
#
# Track frame offsets:
#	150
#	15244
#	30033
#	42847
#	59993
#	72911
#	90247
#	107456
#	122899
#	140160
#	153732
#	163203
#	177042
#	195627
#	212440
#
# Disc length: 3018 seconds
#
# Revision: 2
# Processed by: cddbd v1.5.2PL0 Copyright (c) Steve Scherf et al.
# Submitted via: audiograbber 1.83.01
#
DISCID=c50bc80f
DTITLE=Adam Harvey - Best So Far
DYEAR=2010
DGENRE=Country
TTITLE0=Better Than This
TTITLE1=Gypsy Queen
TTITLE2=The House That Jack Built
TTITLE3=The Shake Of A Hand
TTITLE4=Call It Love
TTITLE5=God Made Beer (feat. The Beer Holders)
TTITLE6=That's What You Call A Friend
TTITLE7=Missing Heroes
TTITLE8=I'm Doin' Alright
TTITLE9=Genie In The Bottle
TTITLE10=King Of The Road (feat. John Williamson)
TTITLE11=Stuck In The Middle (feat. Guy Sebastian)
TTITLE12=Easy (feat. Wendy Matthews)
TTITLE13=Drive Away (feat. Tanya Self)
TTITLE14=Good Enough For Me
EXTD=
EXTT0=
EXTT1=
EXTT2=
EXTT3=
EXTT4=
EXTT5=
EXTT6=
EXTT7=
EXTT8=
EXTT9=
EXTT10=
EXTT11=
EXTT12=
EXTT13=
EXTT14=
PLAYORDER=
